<?xml version="1.0" standalone="no"?>
<!DOCTYPE svg PUBLIC "-//W3C//DTD SVG 20010904//EN"
 "http://www.w3.org/TR/2001/REC-SVG-20010904/DTD/svg10.dtd">
<svg version="1.0" xmlns="http://www.w3.org/2000/svg"
 width="1280.000000pt" height="801.000000pt" viewBox="0 0 1280.000000 801.000000"
 preserveAspectRatio="xMidYMid meet">
<metadata>
Created by potrace 1.15, written by Peter Selinger 2001-2017
</metadata>
<g transform="translate(0.000000,801.000000) scale(0.100000,-0.100000)"
fill="#000000" stroke="none">
<path d="M12442 7454 c-18 -17 -576 -944 -1308 -2174 -702 -1180 -1278 -2147
-1280 -2149 -2 -3 -13 5 -24 16 -40 44 -91 75 -151 94 -76 24 -111 24 -139 1
-21 -17 -21 -19 -5 -53 16 -34 16 -39 -4 -110 -62 -211 -62 -210 -50 -269 16
-82 2 -121 -90 -258 -44 -67 -81 -126 -81 -132 0 -14 -20 -13 -71 5 -81 29
-228 47 -329 41 -179 -10 -271 -50 -386 -165 -55 -55 -154 -186 -165 -220 -3
-6 -29 -1 -70 13 -36 14 -127 41 -203 62 -76 21 -131 41 -125 45 7 4 -24 15
-70 26 l-82 18 7 78 c4 42 5 77 2 77 -2 0 -37 -24 -78 -54 l-75 -54 -78 29
c-96 35 -99 36 -87 3 6 -14 10 -29 10 -32 0 -4 -46 -13 -102 -20 -140 -17
-330 -56 -439 -91 l-90 -29 -18 41 c-10 23 -23 59 -30 80 -7 20 -16 37 -20 37
-3 0 -37 -51 -74 -114 l-68 -113 -52 -7 c-29 -3 -77 -6 -107 -6 -30 0 -65 -3
-77 -6 l-23 -6 20 -28 20 -28 -52 -20 c-29 -11 -100 -38 -158 -60 -58 -21
-137 -55 -176 -75 -39 -20 -129 -58 -200 -85 -146 -56 -491 -209 -514 -228
-32 -26 -252 -126 -285 -129 -19 -2 -76 -17 -127 -34 -51 -17 -112 -35 -135
-41 -24 -6 -43 -13 -43 -15 0 -13 352 -6 368 7 7 6 46 11 87 11 41 0 72 3 69
8 -5 9 30 14 79 10 15 -1 34 5 43 13 16 17 21 17 119 21 34 1 150 25 265 55
113 29 213 53 222 53 9 1 15 4 13 8 -6 9 220 114 295 137 77 23 195 39 187 25
-4 -6 -37 -13 -74 -17 -37 -4 -99 -18 -138 -31 -83 -28 -257 -106 -251 -113 3
-2 102 26 220 62 119 36 220 66 225 66 5 0 7 -9 4 -20 -7 -25 -7 -25 58 4 30
13 86 37 126 54 l72 31 101 -65 c56 -36 104 -64 105 -62 2 2 -44 35 -101 75
l-104 72 -104 -38 c-81 -29 -103 -34 -102 -23 2 9 16 17 32 19 16 2 92 24 169
48 213 66 192 67 200 -13 10 -109 12 -112 14 -15 1 92 1 93 29 99 15 4 50 17
78 30 55 24 193 57 348 81 80 13 118 14 194 6 59 -6 98 -15 104 -24 6 -9 11
-10 14 -3 6 14 93 -1 319 -56 230 -55 215 -47 215 -124 0 -174 -57 -277 -185
-337 -72 -34 -191 -51 -296 -42 -65 5 -85 12 -161 55 -233 134 -379 153 -636
87 -63 -16 -117 -27 -121 -24 -4 2 -38 -18 -76 -46 -122 -88 -325 -193 -450
-232 -92 -29 -400 -105 -445 -111 -25 -3 -101 -13 -170 -21 -205 -25 -488 -46
-775 -55 -262 -9 -426 -20 -570 -40 -65 -9 -426 -5 -505 6 l-35 4 33 -15 c18
-8 38 -12 46 -9 7 3 21 -2 30 -11 21 -22 180 -75 236 -80 59 -4 103 -16 112
-28 3 -6 26 -11 50 -11 24 -1 50 -6 58 -11 8 -6 40 -10 71 -10 34 -1 66 -7 81
-17 23 -15 207 -49 343 -63 33 -4 109 -13 170 -21 99 -13 520 -22 531 -11 2 2
-48 12 -111 22 -100 16 -131 16 -247 6 -170 -14 -212 -12 -83 4 149 19 267 18
394 -5 l113 -21 197 21 c108 11 221 27 251 36 30 9 111 31 180 49 277 74 501
182 715 344 49 37 173 71 261 71 89 0 147 -15 326 -81 218 -82 309 -97 504
-82 93 8 168 9 201 3 246 -42 555 -7 810 91 223 87 373 221 463 414 51 109 70
189 77 327 6 127 -5 210 -39 291 -18 42 -19 49 -6 60 9 7 47 59 85 117 75 113
101 133 213 161 63 16 96 34 153 87 58 55 87 107 87 160 0 44 -31 79 -117 132
-29 17 -53 33 -53 36 0 2 594 1001 1320 2220 1040 1747 1320 2225 1320 2251 0
47 -43 93 -96 100 -35 4 -46 1 -72 -23z m-4652 -5171 c0 -12 -3 -24 -7 -26
-12 -7 -83 4 -83 13 0 4 17 19 38 32 39 27 52 22 52 -19z m-215 7 c18 -8 17
-9 -7 -9 -16 -1 -28 4 -28 9 0 12 8 12 35 0z m-751 -93 c9 -23 16 -48 16 -53
0 -6 -26 -19 -57 -29 -32 -10 -64 -20 -71 -23 -7 -2 8 30 35 71 26 42 51 76
54 76 4 1 14 -18 23 -42z m-254 -145 c0 -4 -23 -15 -51 -25 -49 -18 -51 -18
-71 0 -20 18 -19 18 38 24 33 3 65 6 72 7 6 1 12 -1 12 -6z m207 -19 c2 -6
-10 -13 -27 -15 -33 -5 -40 5 -12 21 20 12 34 10 39 -6z m-879 -1051 c2 -8 -8
-12 -30 -12 -31 1 -32 1 -13 15 21 17 37 15 43 -3z"/>
<path d="M7204 3869 l7 -144 -100 -75 c-55 -41 -100 -78 -101 -82 0 -4 55 -24
122 -45 l122 -38 42 -130 c23 -72 45 -130 49 -130 4 0 40 50 79 112 42 66 79
114 91 117 11 3 71 6 134 6 l113 0 -24 33 c-14 17 -49 65 -79 106 l-54 74 48
135 c26 75 46 136 44 137 -1 1 -62 -20 -135 -47 l-133 -48 -82 58 c-45 32 -97
69 -116 82 l-34 23 7 -144z m166 -17 l54 -40 108 39 c70 25 108 34 108 26 0
-7 -13 -56 -29 -110 l-29 -97 80 -98 80 -97 -128 -3 -129 -3 -64 -90 c-35 -49
-66 -87 -70 -84 -3 4 -22 52 -42 107 l-36 102 -109 28 c-60 16 -115 31 -123
34 -8 2 28 34 88 76 l101 71 0 119 0 119 43 -30 c23 -16 67 -47 97 -69z"/>
<path d="M8240 3375 c0 -53 -1 -56 -40 -81 -22 -15 -40 -30 -40 -35 0 -4 16
-13 35 -19 39 -13 55 -35 56 -77 0 -15 4 -37 8 -47 7 -17 12 -14 42 27 32 44
37 46 82 47 26 0 47 3 47 8 -1 4 -9 23 -19 42 l-19 34 30 53 c33 58 32 58 -43
42 -51 -11 -51 -11 -88 25 -20 20 -40 36 -44 36 -4 0 -7 -25 -7 -55z m118 -46
c35 10 38 5 21 -33 -10 -21 -7 -29 17 -62 l29 -37 -49 7 c-42 7 -51 5 -72 -15
-25 -23 -23 -25 -39 26 -2 9 -23 24 -46 33 l-41 18 41 18 c25 12 41 26 41 37
0 9 3 25 6 34 6 14 10 13 33 -9 23 -22 31 -25 59 -17z"/>
<path d="M9082 3348 l-30 -73 -93 -21 -93 -20 77 -55 77 -54 -6 -70 c-3 -38
-3 -67 1 -63 4 4 11 37 14 73 l7 67 -48 43 -48 43 62 19 63 19 23 64 c13 35
24 66 26 68 2 2 19 -23 37 -55 18 -32 37 -61 43 -65 6 -4 35 -8 64 -8 28 0 52
-3 52 -8 0 -4 -17 -28 -39 -54 l-39 -47 16 -56 c8 -30 13 -57 10 -60 -2 -3
-29 3 -59 14 l-55 18 -69 -48 c-81 -58 -80 -63 4 -14 32 19 64 35 69 35 5 0
44 -16 86 -35 43 -19 79 -35 81 -35 2 0 -8 39 -21 87 l-24 86 55 66 54 66 -91
10 -91 10 -42 63 -43 63 -30 -73z"/>
<path d="M5900 3352 l-75 -49 -93 39 c-52 22 -96 38 -98 35 -2 -2 10 -43 26
-92 17 -49 30 -94 30 -101 0 -6 -22 -40 -50 -75 -27 -35 -50 -67 -50 -71 0 -3
40 -10 90 -14 l89 -7 53 -88 c29 -49 55 -89 58 -89 3 0 16 33 29 73 39 122 38
121 138 147 48 12 92 25 96 27 4 3 -29 33 -75 67 l-83 62 3 92 c2 51 0 92 -5
92 -4 0 -42 -22 -83 -48z m67 -60 l-6 -87 61 -50 61 -49 -39 -13 c-22 -6 -57
-17 -79 -22 -39 -10 -42 -14 -65 -81 -13 -38 -27 -70 -31 -70 -3 0 -25 27 -48
60 l-42 59 -89 3 -90 3 55 62 c30 33 55 69 55 78 0 9 -7 44 -16 77 -8 33 -13
62 -11 64 2 3 36 -7 75 -22 l70 -26 69 51 c37 28 70 50 72 51 2 0 1 -39 -2
-88z"/>
<path d="M6725 3119 l-7 -70 -54 -27 c-30 -14 -54 -29 -54 -32 0 -4 22 -19 49
-33 53 -29 61 -47 61 -135 l0 -46 58 55 c55 54 58 56 97 48 77 -15 77 -16 49
46 l-24 56 41 60 c22 33 39 62 37 64 -2 3 -35 -1 -73 -6 l-69 -11 -49 51 c-26
28 -50 51 -52 51 -1 0 -6 -32 -10 -71z m67 -33 c25 -31 30 -33 72 -29 26 3 46
3 46 1 0 -3 -7 -22 -15 -43 -15 -35 -15 -38 10 -82 15 -24 25 -46 23 -48 -2
-3 -27 2 -54 9 -50 13 -51 13 -85 -15 -43 -36 -49 -36 -49 2 0 44 -14 63 -59
84 -23 10 -41 21 -41 25 0 3 17 12 38 19 52 19 60 27 67 72 4 21 10 39 13 39
4 0 19 -15 34 -34z"/>
<path d="M8527 2938 l6 -81 -54 -47 -53 -48 59 -18 c33 -10 64 -21 69 -26 5
-4 19 -37 30 -74 12 -36 25 -66 30 -66 5 0 25 29 45 64 l37 63 67 3 c37 2 67
5 67 9 0 3 -16 27 -35 53 -19 26 -35 53 -35 60 0 7 11 43 25 81 13 38 20 69
15 69 -5 0 -39 -12 -75 -26 l-66 -26 -69 46 -69 46 6 -82z m90 -24 l31 -24 56
20 56 19 -7 -27 c-3 -15 -9 -38 -13 -52 -6 -20 1 -35 37 -77 l45 -53 -70 0
-69 0 -28 -40 c-15 -22 -31 -40 -34 -40 -4 0 -15 22 -25 50 -18 49 -18 50 -77
62 -32 7 -59 15 -59 18 0 4 22 22 50 41 49 34 50 35 50 87 0 58 0 58 57 16z"/>
<path d="M4444 2795 c-40 -24 -44 -24 -78 -10 -19 8 -37 15 -40 15 -2 0 -2
-18 1 -40 5 -37 3 -43 -38 -80 l-44 -39 57 -1 c54 0 57 -1 78 -37 l21 -36 25
36 c23 34 28 37 74 37 28 0 50 4 50 10 0 5 -16 22 -35 37 -35 27 -35 29 -29
81 3 28 5 52 3 52 -2 0 -23 -11 -45 -25z m-22 -41 c28 5 30 4 26 -19 -3 -16 1
-30 13 -41 25 -22 24 -32 -3 -36 -14 -2 -29 -16 -40 -38 l-17 -35 -13 33 c-9
24 -21 35 -40 39 -32 6 -35 15 -12 34 12 10 14 23 10 52 l-7 40 27 -18 c18
-11 36 -15 56 -11z"/>
<path d="M5782 2324 c-29 -23 -35 -24 -68 -14 -19 7 -37 10 -40 7 -3 -2 3 -21
12 -40 16 -33 16 -37 1 -61 -23 -34 -22 -36 16 -36 27 0 36 -6 57 -43 l24 -42
8 45 c7 41 23 63 52 73 7 3 4 12 -8 26 -15 16 -19 34 -17 66 1 25 1 45 -1 45
-2 0 -18 -12 -36 -26z m39 -89 l24 -13 -28 -7 c-15 -4 -31 -15 -37 -24 -7 -13
-11 -14 -21 -3 -7 6 -24 12 -38 12 -19 0 -22 3 -13 12 7 7 12 23 12 36 0 18 4
22 18 18 9 -3 24 -1 32 4 11 7 17 5 21 -6 3 -9 16 -22 30 -29z"/>
<path d="M2775 2030 c-7 -44 -11 -47 -69 -71 l-39 -16 44 -24 c39 -21 44 -29
47 -62 l3 -38 34 21 33 20 46 -20 c25 -10 46 -17 46 -15 0 2 -10 25 -22 49
-20 42 -20 46 -5 70 23 34 22 36 -13 36 -26 0 -35 8 -58 45 -15 24 -30 45 -34
45 -3 0 -9 -18 -13 -40z m89 -60 l39 0 -22 -24 c-17 -18 -22 -32 -17 -49 5
-21 3 -23 -22 -19 -18 2 -33 -2 -41 -12 -20 -24 -34 -19 -28 11 3 19 -1 31
-16 43 -20 17 -20 17 6 24 14 3 29 15 32 27 5 15 10 18 18 10 6 -6 29 -11 51
-11z"/>
</g>
</svg>
